<svg fill="none" height="176" viewBox="0 0 444 176" width="444" xmlns="http://www.w3.org/2000/svg"><g fill="#000"><path d="m379.719 175.621c-36.568 0-63.753-32.959-63.753-86.6072 0-53.6485 27.185-86.60755 63.753-86.60755 36.567 0 63.752 32.95905 63.752 86.60755 0 53.6482-27.185 86.6072-63.752 86.6072zm0-14.915c27.185 0 47.393-26.704 47.393-71.6922 0-44.9878-20.208-71.6918-47.393-71.6918-27.186 0-47.394 26.704-47.394 71.6918 0 44.9882 20.208 71.6922 47.394 71.6922z"/><path d="m303.029 4.81152v168.40348h-16.36v-150.1196l-43.544 22.133v-16.3592l47.634-24.05768z"/><path d="m245.811 158.299v14.916h-100.561v-173.215h16.359v158.299z"/><path d="m137.176 0-58.9414 86.6076 58.9414 86.6074h-20.69l-47.3933-72.895-48.8371 72.895h-19.72728l59.42248-86.6074-59.42248-86.6076h20.68958l47.8748 72.8947 48.3563-72.8947z"/></g></svg>