<svg xmlns:xlink="http://www.w3.org/1999/xlink" xmlns="http://www.w3.org/2000/svg" fill="none" height="16" viewBox="0 0 79 16" width="79"><g fill="#000"><path d="m6.34898 15.9998c-3.93695 0-6.10643-2.3791-6.34898-4.9514h2.18969c.26501 2.0543 1.65967 3.2176 4.0717 3.2176 1.92469 0 3.69441-.8648 3.69441-2.4867 0-2.01041-2.38958-2.40108-4.62418-2.91904-2.58721-.60137-4.999236-1.52975-4.999236-4.44879 0-2.35717 2.212146-4.41147 5.441666-4.41147 3.38447 0 5.61455 1.98846 5.99635 4.7341h-2.1133c-.17742-1.64168-1.5923-3.00463-3.78199-3.00463-1.76074 0-3.55291.90425-3.55291 2.59421 0 2.22769 2.36711 2.41424 4.77914 2.98488s4.84656 1.4266 4.84656 4.32364c0 2.4867-2.10215 4.3676-5.59892 4.3676z"/><path d="m24.8646 15.7795h-1.7337c-.0717-.5378-.1085-1.0795-.1101-1.6219h-.0449c-.9298 1.2993-2.4345 1.8392-3.9392 1.8392-3.1621 0-5.3316-2.3352-5.3316-5.838 0-3.50288 2.1695-5.83811 5.3316-5.83811.7653-.00961 1.5216.16253 2.2039.50163.6822.3391 1.27.83501 1.7128 1.44513h.045v-1.72947h1.7697v9.33872c-.0091.6356.0232 1.2712.0965 1.9028zm-1.8146-5.6207c0-2.39891-1.5721-4.19423-3.7371-4.19423s-3.7393 1.79532-3.7393 4.19423c0 2.3988 1.5721 4.1942 3.7393 4.1942 2.1673 0 3.7371-1.7932 3.7371-4.1942z"/><path d="m44.07 8.38527v7.39413h-1.7719v-7.26464c0-1.79312-1.0399-2.59421-2.4323-2.59421-1.7248 0-2.9645 1.49244-2.9645 3.41725v6.4416h-1.7697v-7.26464c0-1.79312-1.0398-2.59421-2.4345-2.59421-1.7248 0-2.9645 1.53634-2.9645 3.45895v6.3999h-1.7697v-11.24155h1.7697v1.47049h.0449c.8984-1.18956 1.9247-1.68777 3.2745-1.68777.6805-.00801 1.3499.17003 1.9324.51401.5826.34399 1.0552.84023 1.3644 1.43274.4348-.60718 1.0143-1.10174 1.6885-1.44093s1.4228-.5128 2.1811-.50582c2.2795 0 3.8516 1.68777 3.8516 4.0647z"/><path d="m57.5412 15.7795h-1.7248c-.0717-.5378-.1084-1.0795-.11-1.6219h-.045c-.9297 1.2993-2.4344 1.8392-3.9392 1.8392-3.1621 0-5.3316-2.3352-5.3316-5.838 0-3.50288 2.1695-5.83811 5.3316-5.83811.7654-.00961 1.5217.16253 2.2039.50163.6823.3391 1.2701.83501 1.7129 1.44513h.0449v-1.72947h1.7697v9.33872c-.012.6354.0172 1.271.0876 1.9028zm-1.8146-5.6207c0-2.39891-1.5721-4.19423-3.7371-4.19423s-3.7393 1.79532-3.7393 4.19423c0 2.3988 1.5721 4.1942 3.7393 4.1942s3.7371-1.7932 3.7371-4.1942z"/><path d="m62.4064 4.53933v1.60437h.045c.5075-1.08202 1.7023-1.72947 3.0745-1.72947.2597-.00227.5191.01903.7748.06364v1.68778c-.2256-.04354-.455-.06559-.685-.06585-2.3019 0-3.2093 1.29711-3.2093 3.32946v6.36484h-1.7697v-11.25477z"/><path d="m79.0002 15.7795h-1.7248c-.0725-.5377-.11-1.0795-.1123-1.6219h-.0427c-.9297 1.2993-2.4345 1.8392-3.9392 1.8392-3.1621 0-5.3316-2.3352-5.3316-5.838 0-3.50288 2.1695-5.83811 5.3316-5.83811.7654-.00961 1.5217.16253 2.2039.50163.6823.3391 1.27.83501 1.7129 1.44513h.0449v-1.72947h1.7697v9.33872c-.0132.6355.0161 1.2711.0876 1.9028zm-1.8146-5.6207c0-2.39891-1.5721-4.19423-3.7394-4.19423-2.1672 0-3.737 1.79532-3.737 4.19423 0 2.3988 1.5721 4.1942 3.737 4.1942 2.165 0 3.7394-1.7932 3.7394-4.1942z"/></g></svg>